HIERARCHY
ROOT Hips
{
   OFFSET 0.00000 0.00000 0.00000
   CHANNELS 6 Xposition Yposition Zposition Zrotation Xrotation Yrotation
   JOINT RightUpLeg
   {
      OFFSET -8.945800 -8.667070 0.101652
      CHANNELS 3 Zrotation Xrotation Yrotation
      JOINT RightLeg
      {
         OFFSET 0.000000 -44.422697 1.372700
         CHANNELS 3 Zrotation Xrotation Yrotation
         JOINT RightFoot
         {
            OFFSET 0.253549 -42.092399 -1.460590
            CHANNELS 3 Zrotation Xrotation Yrotation
            JOINT RightToes
            {
               OFFSET 0.040000 -4.415090 8.499099
               CHANNELS 3 Zrotation Xrotation Yrotation
               End Site
               {
                  OFFSET -0.080000 -0.137448 9.779790
               }
            }
         }
      }
   }
   JOINT Spine
   {
      OFFSET 0.000000 11.890501 0.000000
      CHANNELS 3 Zrotation Xrotation Yrotation
      JOINT Spine1
      {
         OFFSET 0.000000 25.657401 0.127663
         CHANNELS 3 Zrotation Xrotation Yrotation
         JOINT HEad
         {
            OFFSET 0.000000 8.734161 0.011341
            CHANNELS 3 Zrotation Xrotation Yrotation
            End Site
            {
               OFFSET -0.290000 12.774200 2.513950
            }
         }
         JOINT LeftShoulder1
         {
            OFFSET 8.990000 -0.362252 -0.220000
            CHANNELS 3 Zrotation Xrotation Yrotation
            JOINT LeftArm
            {
               OFFSET 10.282700 -0.003380 0.322123
               CHANNELS 3 Zrotation Xrotation Yrotation
               JOINT LeftForeArm
               {
                  OFFSET 32.766900 0.099144 -1.424340
                  CHANNELS 3 Zrotation Xrotation Yrotation
                  JOINT LeftHand
                  {
                     OFFSET 27.564301 0.085362 1.022160
                     CHANNELS 3 Zrotation Xrotation Yrotation
                     End Site
                     {
                        OFFSET 16.744301 -0.600000 1.502910
                     }
                  }
               }
            }
         }
         JOINT RightShoulder
         {
            OFFSET -8.990000 -0.362252 -0.220000
            CHANNELS 3 Zrotation Xrotation Yrotation
            JOINT RightArm
            {
               OFFSET -10.282700 -0.003380 0.322123
               CHANNELS 3 Zrotation Xrotation Yrotation
               JOINT RightForeArm
               {
                  OFFSET -32.897098 0.099144 -1.424340
                  CHANNELS 3 Zrotation Xrotation Yrotation
                  JOINT RightHand
                  {
                     OFFSET -27.492101 0.085362 1.022160
                     CHANNELS 3 Zrotation Xrotation Yrotation
                     End Site
                     {
                        OFFSET -16.631201 -0.600000 1.502910
                     }
                  }
               }
            }
         }
      }
   }
   JOINT LeftUpLeg
   {
      OFFSET 8.945800 -8.667070 0.101652
      CHANNELS 3 Zrotation Xrotation Yrotation
      JOINT LeftLeg
      {
         OFFSET 0.000000 -44.422697 1.372700
         CHANNELS 3 Zrotation Xrotation Yrotation
         JOINT LeftFoot
         {
            OFFSET -0.253549 -42.092399 -1.460590
            CHANNELS 3 Zrotation Xrotation Yrotation
            JOINT LeftToes
            {
               OFFSET -0.040000 -4.415090 8.499099
               CHANNELS 3 Zrotation Xrotation Yrotation
               End Site
               {
                  OFFSET 0.080000 -0.047448 9.779790
               }
            }
         }
      }
   }
}
MOTION
Frames: 7
Frame Time: 0.016667
-171.551492 100.662383 -383.022074 6.433803 51.126865 175.311927 -15.849404 38.667388 8.941322 9.762280 36.704200 -13.429476 -35.326876 9.446863 32.867345 5.708774 -10.972756 -41.857930 4.777545 50.448317 84.253177 27.998530 2.056335 -92.050651 12.002321 15.099538 28.846259 4.169565 -1.605054 -6.135404 -77.812923 -46.485998 -80.049045 -16.704220 -0.153403 -43.429085 -8.001918 0.539976 -40.909309 0.506519 44.447425 40.258672 129.176253 202.727883 214.893078 -21.009148 291.425102 42.549917 5.045232 -12.176194 57.223171 22.408655 23.146876 -49.892333 -24.529687 4.825713 76.053576 -34.369556 20.951414 22.352979 -8.363647 -9.334725 -13.876018
-172.659051 100.980290 -383.961977 6.787739 50.441972 175.219528 -16.676955 37.932890 8.656911 10.102634 35.875019 -11.278196 -34.814509 9.530328 33.287712 5.705442 -10.720763 -41.677138 3.632376 51.326522 84.356736 27.334229 1.611669 -92.948370 10.211179 15.085957 28.651694 4.923522 -0.924032 -6.979252 -75.096953 -50.582352 -75.800271 -14.239014 -8.705896 -45.269100 -9.581616 2.877628 -33.806076 -6.185553 42.634652 41.938683 130.001408 203.403757 215.217690 -22.188503 291.755273 42.786047 11.569148 -9.849745 57.053185 21.960694 22.585694 -46.810387 -24.481705 6.224344 74.970779 -31.929359 20.581826 22.037730 -8.479943 -9.628349 -13.666370
-173.820550 101.213444 -384.998774 7.310696 49.050966 173.496572 -17.470726 36.492714 8.626172 8.735096 34.743089 -8.062782 -34.079000 9.351630 33.359986 5.804743 -10.278549 -41.460935 3.244035 50.719516 84.102120 26.422112 0.772732 -93.350067 7.290899 14.821808 28.518953 6.799202 2.852725 -8.523448 -71.540207 -56.515529 -68.261901 -15.165400 -16.905951 -45.015892 -11.874290 4.901409 -21.550010 -14.207876 38.827047 43.437606 130.497512 205.857271 215.069570 -23.183510 289.536199 42.607410 17.943126 -5.761195 54.160388 20.697167 21.651993 -43.515275 -25.192492 7.565240 74.670504 -27.832186 20.326867 22.084039 -8.767513 -10.087255 -13.030260
-175.100953 101.484955 -386.155275 8.148723 45.028333 169.496048 -19.046150 32.945349 9.603438 7.023037 31.918188 -3.305215 -33.797480 8.356742 33.322686 5.970716 -9.623074 -41.015771 1.031098 50.182769 86.536789 25.578220 0.619269 -92.619264 3.938525 13.041743 28.316603 7.832127 6.063717 -11.538008 -62.277754 -63.119349 -55.928188 -19.914335 -27.823790 -46.704513 -22.698930 3.022325 -4.512469 -24.619036 38.673911 38.920337 129.908750 212.288249 214.620007 -24.081037 284.839816 38.657580 24.225843 1.315617 41.885343 19.401101 17.974550 -39.122531 -27.376513 9.433682 75.532316 -21.966838 20.595870 22.022316 -9.109568 -10.667299 -12.155855
-176.356809 101.847685 -387.311129 9.716657 40.481063 163.428436 -20.667249 28.825181 11.201920 5.822879 29.312259 1.354047 -33.768445 7.374104 33.181196 6.156055 -8.876720 -40.422381 -3.951695 48.261963 89.181220 24.563759 1.010648 -92.225749 -0.119996 10.005258 28.565548 7.990223 9.992123 -13.579945 -42.366147 -70.964217 -34.254416 -26.902657 -38.619945 -44.871891 -30.686715 2.727243 -1.556880 -26.395637 34.946741 37.636361 126.246403 205.834881 215.513341 -26.049517 281.570177 35.401526 7.319575 3.237461 54.167734 19.340464 14.915567 -33.787371 -27.900191 11.051084 75.545710 -18.396889 20.941891 21.720444 -9.578696 -11.147438 -10.820628
-177.560994 102.282790 -388.351587 10.442284 36.728045 158.569740 -22.128215 25.070558 12.141080 5.679064 27.082455 4.654863 -34.018273 6.292268 32.865935 6.246640 -8.375990 -39.894250 -8.546585 46.878846 91.690864 25.215595 2.782961 -89.778540 -4.565365 7.158653 29.001256 8.127217 11.211715 -16.108274 -15.566252 -72.886335 -10.780030 -35.609382 -45.432014 -42.542854 -30.441129 9.100097 -1.394461 -25.354588 32.591860 38.437381 126.334854 201.874000 216.936288 -27.131195 275.089748 30.921410 21.581502 11.827604 28.391278 19.236289 12.457129 -29.905813 -27.959041 12.129987 75.174435 -15.950510 21.141196 21.547905 -10.214563 -11.662737 -8.941718
-178.787973 102.752493 -389.218248 11.452226 33.561337 153.475375 -23.320865 21.834139 12.793189 6.221731 24.871301 7.039434 -34.364225 5.540140 32.721141 6.344840 -7.770879 -39.184051 -13.634830 44.963876 90.499720 26.632282 3.508521 -87.600673 -7.601041 4.655411 30.329482 7.879410 9.012044 -15.933018 0.943804 -75.608985 2.565768 -41.841138 -51.657568 -43.315407 -26.594407 15.118311 -4.428459 -25.304027 30.965472 40.178752 126.528995 195.999067 214.673201 -25.105887 270.509451 32.796413 5.414930 10.907095 47.392217 19.221889 11.107640 -27.524843 -26.982642 12.000594 74.971612 -14.200905 21.764353 21.787931 -11.081457 -11.829286 -6.257501
